<?xml version="1.0" encoding="UTF-8" standalone="no"?>
<svg width="128px" height="70px" viewBox="0 0 128 70" version="1.1" xmlns="http://www.w3.org/2000/svg" xmlns:xlink="http://www.w3.org/1999/xlink">
    <!-- Generator: Sketch 43.2 (39069) - http://www.bohemiancoding.com/sketch -->
    <title>logo color</title>
    <desc>Created with Sketch.</desc>
    <defs></defs>
    <g id="Symbols" stroke="none" stroke-width="1" fill="none" fill-rule="evenodd">
        <g id="Footer" transform="translate(-251.000000, -173.000000)" fill-rule="nonzero">
            <g transform="translate(0.000000, 2.000000)" id="logo-color">
                <g transform="translate(251.000000, 171.000000)">
                    <path d="M115.968478,0 C122.24491,0 127.333154,5.0708989 127.333154,11.3258972 C127.333154,17.5810553 122.24507,22.6514748 115.968478,22.6514748 C109.691887,22.6514748 104.603482,17.5810553 104.603482,11.3258972 C104.603482,5.0708989 109.691887,0 115.968478,0 Z M114.912116,17.2847508 L114.911955,17.2847508 L114.911955,16.2069311 L112.771166,16.2069311 L113.985814,15.1291113 C114.104489,15.0209138 114.219314,14.911278 114.33013,14.8006832 C114.441428,14.6899286 114.540216,14.5707036 114.626656,14.4426885 C114.713096,14.3148332 114.780933,14.1756308 114.830327,14.0255607 C114.879721,13.8754907 114.904418,13.7070414 114.904418,13.5198932 C114.904418,13.2493196 114.851496,13.0132668 114.74517,12.8112555 C114.639004,12.6095639 114.497076,12.4422333 114.319385,12.3092639 C114.141534,12.1764542 113.939146,12.0780057 113.711741,12.0140781 C113.484656,11.9501505 113.250033,11.9181866 113.008354,11.9181866 C112.75128,11.9181866 112.508318,11.9565432 112.278507,12.0334162 C112.048696,12.1101293 111.845025,12.221683 111.667334,12.3677577 C111.489643,12.5141519 111.342743,12.6909118 111.226635,12.8986766 C111.110526,13.1061217 111.037878,13.3428137 111.00805,13.6085928 L112.200727,13.770969 C112.225424,13.5345966 112.303364,13.3440923 112.434067,13.1988168 C112.564929,13.0537011 112.73412,12.9809834 112.94148,12.9809834 C113.138896,12.9809834 113.297182,13.0386781 113.415696,13.1542272 C113.53405,13.2697764 113.593387,13.4209653 113.593387,13.6074741 C113.593387,13.7645762 113.553775,13.9071348 113.474873,14.0346704 C113.39565,14.1625257 113.292371,14.2878238 113.163914,14.4107247 L111.119347,16.252959 L111.119347,17.2847508 L114.912116,17.2847508 Z M114.912116,10.6260496 L114.911955,10.6260496 L114.911955,9.54854946 L112.771166,9.54854946 L113.985814,8.47088955 C114.104489,8.36253223 114.219314,8.25305618 114.33013,8.14230157 C114.441428,8.03154696 114.540216,7.91232194 114.626656,7.78430688 C114.713096,7.65645163 114.780933,7.51724923 114.830327,7.36717914 C114.879721,7.21710904 114.904418,7.04849993 114.904418,6.86151164 C114.904418,6.59077815 114.851496,6.3547254 114.74517,6.15271411 C114.639004,5.95102246 114.497076,5.78369191 114.319385,5.65072245 C114.141534,5.51791281 113.939146,5.41946427 113.711741,5.35553665 C113.484656,5.29160902 113.250033,5.25948539 113.008354,5.25948539 C112.75128,5.25948539 112.508318,5.29784197 112.278507,5.37471493 C112.048696,5.4515879 111.845025,5.56298179 111.667334,5.70921622 C111.489643,5.85545066 111.342743,6.03205072 111.226635,6.2398155 C111.110526,6.44742046 111.037878,6.68411248 111.00805,6.94989157 L112.200727,7.11226774 C112.225424,6.87605517 112.303364,6.68539103 112.434067,6.54011551 C112.564929,6.3949998 112.73412,6.32228213 112.94148,6.32228213 C113.138896,6.32228213 113.297182,6.37997681 113.415696,6.49552599 C113.53405,6.61107517 113.593387,6.762264 113.593387,6.94877284 C113.593387,7.10603479 113.553775,7.24843358 113.474873,7.37596918 C113.39565,7.50382443 113.292371,7.62912257 113.163914,7.75202343 L111.119347,9.59425772 L111.119347,10.6260496 L114.912116,10.6260496 Z M118.508912,17.3919894 C120.025538,17.3919894 121.255261,16.1666567 121.255261,14.655088 C121.255261,13.1435194 120.025538,11.9181866 118.508912,11.9181866 C116.991965,11.9181866 115.762562,13.1435194 115.762562,14.655088 C115.762562,16.1666567 116.991965,17.3919894 118.508912,17.3919894 Z M118.508912,9.53496484 C117.656245,9.53496484 116.965022,8.84611998 116.965022,7.99638677 C116.965022,7.14665356 117.656245,6.45780869 118.508912,6.45780869 C119.361578,6.45780869 120.052801,7.14665356 120.052801,7.99638677 C120.052801,8.84611998 119.361578,9.53496484 118.508912,9.53496484 Z M118.508912,10.7332881 C120.025538,10.7332881 121.255261,9.50795542 121.255261,7.99638677 C121.255261,6.48481811 120.025538,5.25948539 118.508912,5.25948539 C116.991965,5.25948539 115.762562,6.48481811 115.762562,7.99638677 C115.762562,9.50795542 116.991965,10.7332881 118.508912,10.7332881 Z M118.508912,16.1936661 C117.656245,16.1936661 116.965022,15.5048212 116.965022,14.655088 C116.965022,13.8053548 117.656245,13.1165099 118.508912,13.1165099 C119.361578,13.1165099 120.052801,13.8053548 120.052801,14.655088 C120.052801,15.5048212 119.361578,16.1936661 118.508912,16.1936661 Z" id="2020" fill="#7C4E2A"></path>
                    <polygon id="F" fill="#5AB4E1" points="104.529711 22.7434359 102.925843 31.435515 81.7339668 31.435515 81.7339668 42.3003342 100.627249 42.3003342 99.0235409 50.333799 81.7339668 50.333799 81.7339668 69.7588466 71.3602224 69.7588466 71.3602224 22.7434359"></polygon>
                    <g id="globe" transform="translate(17.448376, 22.374668)">
                        <path d="M23.1075054,6.06513327 C25.4591825,6.16310235 27.2848435,8.0662277 27.2664009,10.3979878 C27.252609,12.7508439 26.9807805,15.0573526 26.466311,17.2873079 C27.0579189,17.261577 27.6634789,17.2468737 28.2873213,17.2468737 C34.3211116,17.2468737 41.0502697,18.4199456 46.9220855,19.815166 C45.1206405,8.61424725 35.3802003,0.0562563086 23.6332008,0.0562563086 C14.5895716,0.0562563086 6.73605399,5.12891322 2.77746159,12.5739242 C8.19286218,8.34207539 14.8650886,6.04100059 21.8679996,6.04100059 C22.2791903,6.04100059 22.6963147,6.04915136 23.1075054,6.06513327 Z" id="blue" fill="#5AB4E1"></path>
                        <path d="M24.9779098,39.4888921 C24.9432697,39.8446493 24.5981518,40.1623696 24.2361949,40.1692418 C24.1274635,40.1716391 24.0185718,40.1727578 23.9100008,40.1727578 C20.0657527,40.1727578 16.5932442,38.7118518 14.1323545,36.0585358 C11.5903172,33.3181184 10.4098279,29.637006 10.8080285,25.695868 C10.8452346,25.3369144 11.1905129,25.0161576 11.5489416,25.009605 C11.6514185,25.0075273 11.753735,25.0064086 11.8558912,25.0064086 C15.7038278,25.0064086 19.1859586,26.4697119 21.6590364,29.1252654 C24.2025171,31.8674408 25.3814027,35.5461559 24.9779098,39.4888921 Z M8.63099516,28.7356265 C6.47914,28.2472195 4.25800465,27.9708923 1.99148438,27.9202297 C1.46129857,27.9080834 0.949555405,27.9892715 0.472131585,28.1486111 C0.178492681,26.6667688 0.0230933927,25.1353826 0.0230933927,23.5677175 C0.0230933927,21.3666894 0.327477139,19.2371004 0.895029339,17.2168277 C1.24239245,16.8487644 1.60017967,16.4880528 1.96935321,16.1359714 C7.32814292,11.0235196 14.3948815,8.2079872 21.8678392,8.2079872 C22.250965,8.2079872 22.6392227,8.21565852 23.0194618,8.23052169 C24.1710844,8.27846741 25.1007538,9.24329506 25.0917731,10.3831246 C25.0595385,15.8364705 23.5440346,21.0225989 20.73931,25.4949755 C18.1995179,23.7671716 15.1396434,22.8392622 11.8558912,22.8392622 C11.7389809,22.8392622 11.6215895,22.8403809 11.5069244,22.8427782 C10.0523614,22.8693082 8.79537521,24.0246401 8.64462668,25.4757972 C8.53268787,26.5831834 8.53012194,27.6734691 8.63099516,28.7356265 Z M24.2802969,42.3359088 C24.7038361,42.3279178 25.1089327,42.2229167 25.4758611,42.0456773 C26.5673446,43.4886836 27.5160982,45.0147958 28.3182728,46.6072329 C26.7974767,46.9140855 25.2237582,47.0756626 23.6120318,47.0756626 C12.9196306,47.0756626 3.89043482,39.9854499 0.996383674,30.2657342 C1.2701366,30.1506645 1.56938848,30.0864172 1.88291336,30.0864172 L1.94112796,30.0870565 C4.37186791,30.1410753 6.74679883,30.4738186 9.03160138,31.0653089 C9.63924627,33.477458 10.8226223,35.682961 12.5355426,37.5295104 C15.4129152,40.6315983 19.4524948,42.3397444 23.9101611,42.3397444 C24.0344485,42.3397444 24.159217,42.3386257 24.2802969,42.3359088 Z" id="green" fill="#91C34B"></path>
                        <path d="M47.2009703,23.5678773 C47.2009703,23.0815479 47.1842917,22.599214 47.1552646,22.1202362 C41.2184986,20.6714765 34.3273661,19.4140201 28.2874816,19.4140201 C27.4474595,19.4140201 26.6440019,19.4405501 25.8714958,19.4886556 C25.0649911,22.0858751 23.916576,24.5579563 22.4506266,26.8531178 C22.727587,27.1085087 22.9958873,27.3747672 23.2548861,27.6525328 C26.229283,30.8591424 27.6092736,35.1387771 27.1421135,39.7038487 C27.1175768,39.9555637 27.057117,40.1978494 26.9697149,40.4276692 C28.3421681,42.1962269 29.5130352,44.0840096 30.4738165,46.0641678 C40.1544385,43.1356433 47.2009703,34.1725111 47.2009703,23.5678773 Z" id="brown" fill="#7C4E2A"></path>
                    </g>
                    <rect id="I" fill="#91C34B" x="0.179810773" y="22.4333218" width="10.3737445" height="47.0150912"></rect>
                </g>
            </g>
        </g>
    </g>
</svg>